<svg width="360" height="69" viewBox="0 0 360 69" fill="none" xmlns="http://www.w3.org/2000/svg">
  <path class="logo__champion transition-all" d="M29.4281 43.1661C30.1727 43.1735 30.4482 43.1587 30.4259 42.4885V10.7379C30.4557 9.30075 30.5152 9.1965 29.4058 9.30819C2.62174 12.0931 -2.38211 39.4207 29.4206 43.1661M85.9523 9.78475C86.0267 9.1965 86.6597 8.89865 87.2256 8.86142C89.0871 8.73484 91.3508 8.55613 92.84 8.66782C94.1654 8.65293 94.0984 9.0029 94.0835 9.91133C94.0835 9.91133 94.0835 26.9855 94.2995 34.454C94.4409 36.4794 95.3419 35.3625 95.7515 34.9157C96.9578 33.419 100.108 30.7533 102.803 28.4077C105.491 26.0622 107.725 27.4993 108.596 29.063C109.162 30.0608 111.113 33.4711 112.491 35.9656C114.121 38.6686 115.253 38.0655 116.668 37.0006C125.789 30.3661 131.56 27.2014 137.197 27.06C140.526 27.2014 139.818 29.3013 138.046 29.7629C134.502 30.9394 132.432 33.2329 131.791 36.0252C131.307 38.2739 132.342 40.6121 135.507 39.6143C137.435 39.0111 139.103 37.157 139.312 32.6595C139.9 29.6885 143.065 30.4256 143.809 31.2373C145.053 32.585 147.175 35.2731 148.24 36.7996C149.334 38.6463 150.154 38.0431 151.248 36.9783C153.445 34.7742 156.997 31.4458 159.64 28.8694C161.941 26.6281 164.532 26.911 166.371 29.3683C167.861 31.3564 168.925 32.7638 170.482 34.8115C171.867 36.6209 172.254 36.1965 173.348 34.8115C174.48 33.2478 176.893 30.0831 177.95 28.8024C180.452 26.1292 182.932 27.1493 184.183 28.9066C185.888 31.0735 187.34 33.0318 189 35.1987C189.782 36.3007 190.102 36.4794 191.085 35.0944C191.532 34.4689 194.875 30.1874 196.082 28.9066C197.995 26.5611 200.438 26.844 201.964 28.8321C203.215 30.4703 207.132 34.4168 209.224 36.7996C210.319 38.0431 210.714 38.2591 212.694 36.9411C216.872 34.0966 219.709 28.0503 219.709 28.0503C219.924 27.5886 220.416 27.0897 220.982 27.127C222.829 26.9483 224.206 26.8812 225.673 27.1121C226.611 27.2014 226.931 27.8418 226.916 28.3556L226.969 35.1093C226.969 35.1093 226.864 35.6976 227.259 35.1391C229.515 31.8553 232.635 29.3981 236.291 28.1099C244.288 25.3101 253.894 30.1278 248.786 38.8548C247.721 40.6344 248.853 40.277 249.426 40.277C254.319 40.061 259.985 35.5859 261.981 32.451V28.8619C261.966 28.0652 262.859 27.3504 264.051 27.194C265.681 26.978 268.407 26.8887 270.462 27.0897C273.172 27.2684 273.157 27.4844 273.098 29.0779C273.113 30.7533 273.061 36.0177 273.15 38.3037C273.135 40.7759 275.026 40.6344 277.007 39.6589C280.44 38.2144 285.228 34.6923 287.849 31.6394C291.319 27.3727 295.213 25.6601 299.323 25.9505C303.605 25.7718 302.548 28.1173 300.254 28.7726C298.408 29.4353 297.723 30.3661 297.201 31.0884C295.638 33.2403 295.183 35.9284 296.151 38.3708C297.387 41.4758 299.979 41.0961 301.111 39.3611C302.257 37.5964 302.972 34.8636 302.049 32.7861C300.135 29.2864 302.384 29.5693 304.774 29.5172C310.053 29.2343 315.646 27.9163 320.255 26.9185C324.082 26.3824 324.261 27.4546 324.789 28.3779C325.661 29.8895 326.316 31.6468 327.023 33.1063C327.805 34.8859 328.513 34.4615 329.607 33.1063C330.739 31.8255 332.831 29.7629 333.963 28.5864C336.659 26.2036 339.228 27.0153 340.553 28.5492C342.147 30.3959 344.783 33.8435 346.361 35.839C347.739 37.5814 349.265 37.9389 351.037 37.1198C352.065 36.7326 353.8 35.6231 355.215 34.5583C357.873 32.5999 360.561 33.3818 359.184 36.0177C356.987 39.1452 354.44 41.6694 351.32 43.732C346.436 46.718 342.75 47.9317 340.091 44.3352C338.848 43.0172 337.329 41.029 335.274 38.2516C334.529 36.9038 333.502 37.0453 332.474 38.3261C331.357 39.726 328.93 42.5928 327.269 44.3724C325.035 47.2541 321.908 47.7232 319.905 43.9107C318.274 40.8205 316.36 36.4794 314.663 32.034L309.741 32.8159C317.142 49.7113 287.886 51.8112 286.3 39.4356C286.3 39.0335 286.263 38.8622 285.823 39.2941C280.276 45.1245 276.069 45.9808 271.527 46.6137C262.978 47.2392 261.943 43.7693 261.876 39.4877C261.899 39.1452 261.862 38.9664 261.437 39.4207C249.94 49.8305 238.585 46.435 234.757 44.2682C233.089 43.3448 232.419 41.5652 234.69 41.7439C242.479 43.665 244.006 27.6929 233.343 36.2337C225.867 43.4565 226.894 54.8343 227.497 66.5695C227.512 67.8131 227.289 68.096 226.432 68.3864C224.623 68.9896 223.208 69.131 221.153 68.8853C220.334 68.7885 219.999 68.6694 219.738 67.7833C218.502 61.6997 218.644 46.1744 218.688 38.408C216.395 40.7908 214.407 42.4438 211.771 44.1713C207.363 46.6807 203.766 47.9093 200.773 44.0448C200.773 44.0448 198.137 40.9322 197.005 39.4728C195.836 37.9984 195.322 37.7676 194.242 39.4356C193.178 40.962 191.8 42.4959 190.274 44.4469C187.898 47.686 184.957 47.0084 183.364 44.5511C182.262 43.2331 180.564 40.962 179.216 39.0409C178.404 37.7229 177.645 38.1027 176.878 39.1452C175.672 40.7833 174.078 42.5257 172.619 44.1937C169.476 47.7753 166.893 47.2541 164.517 44.0894C163.028 42.0641 162.246 41.0663 160.303 38.2218C159.454 37.0826 158.813 37.6559 158.069 38.2888C157.711 38.6016 153.393 42.2726 151.196 44.015C146.661 48.103 144.323 47.8572 140.89 42.7715C140.324 41.7066 139.878 42.3991 139.543 42.8087C138.731 43.8065 137.279 44.6181 135.291 45.6159C125.901 49.3167 121.016 43.6799 121.515 40.1727C121.642 39.1377 120.793 39.9791 120.473 40.2993C120.19 40.5823 116.698 43.6278 114.858 44.5511C109.103 47.753 106.325 46.3829 104.888 44.566C103.898 43.5682 102.334 40.5078 101.47 39.3536C100.569 38.1474 100.07 38.1474 99.0427 39.5175C98.4098 40.3589 97.5907 41.1556 95.8334 43.3225C91.7082 48.6018 86.883 46.9116 85.9969 40.3961C84.7385 33.8509 84.8875 17.1714 85.9374 9.7922M70.9779 12.9271C67.9846 11.9442 62.6531 10.3656 57.9992 9.72518C56.994 9.5837 56.2642 9.4869 55.2292 9.44223C54.1197 9.39755 54.1793 9.43478 54.2091 10.8719V42.347C54.1942 43.0172 54.3431 43.0544 55.542 42.9353C61.3947 42.5034 74.5372 39.2866 79.6081 36.74C80.5612 36.2188 81.626 35.8837 80.457 37.291C79.5411 38.3782 78.3348 39.3909 77.7019 39.9196C57.195 56.4948 29.7706 52.4143 15.8983 46.5839C-0.647146 39.8153 -8.38376 19.1893 15.2952 6.53076C29.2345 -1.10905 59.5257 -1.70475 73.532 8.8093C76.0339 10.6857 77.2179 12.0261 77.62 13.8206C77.9029 15.6375 77.5529 15.1535 76.652 14.8854C76.086 14.6992 74.7532 14.2376 74.2692 14.0514C72.8693 13.5302 72.281 13.3515 70.9779 12.9271ZM261.348 19.7999C261.348 17.298 264.036 15.2726 267.357 15.2726C270.678 15.2726 273.366 17.298 273.366 19.7999C273.366 22.3018 270.678 24.3272 267.357 24.3272C264.036 24.3272 261.348 22.3018 261.348 19.7999Z" fill="#212D64"></path>
  <path d="M29.4279 43.1661C30.1726 43.1736 30.4481 43.1587 30.4257 42.4885V10.7379C30.4555 9.30076 30.5151 9.19652 29.4056 9.30821C2.62158 12.0931 -2.38227 39.4207 29.4205 43.1661" fill="#CD202D"></path>
  <path d="M342.303 24.737C342.303 23.1659 343.576 22.0117 345.08 22.0117C346.584 22.0117 347.843 23.1659 347.843 24.737C347.843 26.3082 346.569 27.4772 345.08 27.4772C343.591 27.4772 342.303 26.3156 342.303 24.737ZM345.08 27.023C346.316 27.023 347.292 26.055 347.292 24.737C347.292 23.419 346.316 22.4659 345.08 22.4659C343.844 22.4659 342.846 23.4414 342.846 24.737C342.846 26.0327 343.829 27.023 345.08 27.023ZM344.499 26.3231H344.023V23.1733H345.222C345.966 23.1733 346.339 23.4488 346.339 24.0743C346.339 24.6402 345.981 24.886 345.52 24.9381L346.413 26.3231H345.877L345.05 24.9604H344.499V26.3231ZM345.073 24.5509C345.475 24.5509 345.84 24.5211 345.84 24.0371C345.84 23.6424 345.482 23.5754 345.155 23.5754H344.499V24.5509H345.073Z" fill="#212D64"></path>
</svg>