<svg xmlns="http://www.w3.org/2000/svg" width="106" height="12" viewBox="0 0 126 12" fill="none">
      <g clip-path="url(#clip0_33055_17107)">
      <path d="M119.246 11.9986C123.732 11.9986 125.688 10.1746 125.688 7.92305C125.688 5.42501 123.173 4.68543 120.43 4.48878C119.887 4.456 119.559 4.34058 119.559 4.07838C119.559 3.84895 119.823 3.6181 121.154 3.6181C122.649 3.6181 124.145 3.93018 125.295 4.3078L125.345 4.25793L125.05 0.70823C124.031 0.313502 122.19 0.0014264 120.514 0.0014264C116.735 0.0014264 114.632 1.74421 114.632 3.92875C114.632 5.96651 116.44 7.23192 119.628 7.46277C120.252 7.51265 120.762 7.62665 120.762 7.92305C120.762 8.21945 120.269 8.38333 119.135 8.38333C117.475 8.38333 115.98 8.02138 114.845 7.67652L114.796 7.69362L115.125 11.3915C115.814 11.638 117.311 12 119.25 12M109.078 0.249377L108.109 2.68187L106.827 5.04881H106.794V0.250803H101.536L102.029 6.05201L101.536 11.7549H106.794V8.46883L107.632 7.84467L108.273 9.43926L108.849 11.7563H114.633V11.7235L111.528 5.42929L114.633 0.269324V0.252225H109.078V0.249377ZM97.3449 12C98.5776 12 99.5637 11.8689 100.467 11.6224L100.829 7.39865L100.812 7.38155C99.7603 7.69362 98.8241 7.89027 97.8537 7.89027C95.9798 7.89027 95.1262 7.16779 95.1262 6.00071C95.1262 4.83363 95.9812 4.11115 97.8537 4.11115C98.8227 4.11115 99.7603 4.3078 100.812 4.61988L100.829 4.60278L100.467 0.379053C99.5637 0.132526 98.5776 0.0014264 97.3449 0.0014264C92.6453 0.0014264 90.1957 2.48237 90.1957 5.99929C90.1957 9.51621 92.6438 11.9972 97.3449 11.9972M83.0806 8.29925C82.0289 8.29925 81.5188 7.41147 81.5188 5.99786C81.5188 4.58425 82.0275 3.69647 83.0806 3.69647C84.1337 3.69647 84.6082 4.58425 84.6082 5.99786C84.6082 7.41147 84.1151 8.29925 83.0806 8.29925ZM83.0806 11.9972C87.139 11.9972 89.5387 9.63021 89.5387 5.99929C89.5387 2.36837 87.139 0.0014264 83.0806 0.0014264C79.0222 0.0014264 76.5897 2.36837 76.5897 5.99929C76.5897 9.63021 78.9894 11.9972 83.0806 11.9972ZM69.6541 11.9972C74.1401 11.9972 76.0966 10.1731 76.0966 7.92163C76.0966 5.42358 73.5829 4.684 70.8383 4.48735C70.2954 4.45458 69.9676 4.33915 69.9676 4.07695C69.9676 3.84752 70.2298 3.61667 71.5622 3.61667C73.0571 3.61667 74.5533 3.92875 75.7033 4.30638L75.7532 4.2565L75.4568 0.706803C74.4379 0.312076 72.5968 0 70.921 0C67.1418 0 65.0371 1.74279 65.0371 3.92732C65.0371 5.96509 66.8454 7.23049 70.0332 7.46135C70.6573 7.51122 71.1675 7.62522 71.1675 7.92163C71.1675 8.21803 70.6744 8.3819 69.5401 8.3819C67.88 8.3819 66.3852 8.01995 65.2509 7.6751L65.201 7.6922L65.5302 11.3901C66.2199 11.6366 67.7161 11.9986 69.6556 11.9986" fill="black" fill-opacity="0.95"></path>
      <path d="M56.6479 0.247966L56.0066 2.82866L55.6617 4.30782H55.5962L55.2513 2.82866L54.6101 0.247966H49.0882L52.95 8.89207L52.655 11.7521H58.0786L57.7822 8.92485L61.661 0.247966H56.6493H56.6479ZM43.4352 3.25474C44.5039 3.25474 45.1437 3.73069 45.1437 4.76667C45.1437 5.80265 44.5025 6.32848 43.4352 6.32848V3.25474ZM44.3885 0.247966H38.3579L38.8509 6.04918L38.5217 11.7521H43.847L43.4366 9.25402V9.23693L45.1124 9.36802C47.6603 9.36802 49.5 7.51124 49.5 4.79945C49.5 2.08765 47.6589 0.246544 44.3885 0.246544M31.6361 3.25331C32.7048 3.25331 33.3447 3.72926 33.3447 4.76525C33.3447 5.80123 32.7034 6.32705 31.6361 6.32705V3.25331ZM32.5894 0.246544H26.5588L27.0518 6.04775L26.7227 11.7506H32.0465L31.6361 9.2526V9.2355L33.3119 9.3666C35.8584 9.3666 37.6995 7.50982 37.6995 4.79802C37.6995 2.08623 35.8584 0.245117 32.588 0.245117M20.0821 7.11508H18.6357L19.3425 2.95691H19.3753L20.0821 7.11508ZM26.1455 11.7492L24.568 6.01356L23.3525 0.245117H15.6945L14.6428 6.01356L13.2791 11.7492H17.8648L18.127 10.1546H20.5923L20.8559 11.7492H26.1469H26.1455ZM7.4437 0.245117V4.00857H5.56981V0.245117H0.311523L0.804577 6.04633L0.311523 11.7492H5.56981V7.95299H7.4437V11.7492H12.702L12.2089 6.04633L12.702 0.245117H7.4437Z" fill="black" fill-opacity="0.95"></path>
      </g>
      <defs>
      <clipPath id="clip0_33055_17107">
      <rect width="125.5" height="12" fill="white" transform="translate(0.25)"></rect>
      </clipPath>
      </defs>
    </svg>