<svg xmlns="http://www.w3.org/2000/svg" fill="none" viewBox="0 0 340 49" height="49" width="340">
<g clip-path="url(#clip0_1514_18243)">
<path fill="black" d="M34.0112 0.744141V39.1513H24.4081V22.7749H9.65909V39.1513H0V0.744141H9.65909V14.6162H24.4081V0.744141H34.0112Z"></path>
<path fill="black" d="M55.6309 10.7529H63.9853V39.1512H55.6309V36.4335C54.8162 37.3572 54.3291 37.899 52.8088 38.6627C51.1262 39.5302 49.2839 39.9682 47.4389 39.9682C45.5939 39.9682 42.1754 39.6959 40.2212 36.9754C38.7569 34.909 38.4854 33.2217 38.4854 28.5977V10.7529H46.8958V28.3815C46.8958 29.6336 46.8958 30.8858 47.5481 31.7533C48.0353 32.4075 49.1775 33.1711 50.8574 33.1711C51.3473 33.1711 52.4868 33.1711 53.7355 32.4608C55.5245 31.3743 55.5805 29.9593 55.6337 28.4348V10.7529H55.6309Z"></path>
<path fill="black" d="M71.7911 29.5773C74.0701 31.8093 76.8894 33.4939 80.0363 33.4939C82.0437 33.4939 85.0815 32.8425 85.0815 30.72C85.0815 29.7402 84.4879 29.3612 83.998 29.086C82.7493 28.4347 80.7951 28.2718 79.1684 27.9967C77.9225 27.7805 76.6207 27.5082 75.372 27.1292C73.6361 26.6407 71.9003 25.9332 70.6516 24.681C69.4057 23.4288 68.5378 21.4748 68.5378 19.3495C68.5378 14.6721 72.5526 9.8291 80.4731 9.8291C87.1477 9.8291 91.1625 12.7124 93.1139 14.0741L87.9596 18.861C85.3026 16.7946 82.8081 16.0338 80.8539 16.0338C77.6006 16.0338 76.8418 17.3393 76.8418 18.1535C76.8418 19.7874 78.6309 20.1131 81.3438 20.6016C87.0413 21.6348 93.6599 23.1565 93.6599 29.9058C93.6599 36.6551 86.9321 39.8614 80.2603 39.8614C72.3931 39.8614 68.325 36.0515 66.5332 34.3642L71.7967 29.5773H71.7911Z"></path>
<path fill="black" d="M105.315 0.69043V13.7483C106.511 12.5495 108.949 9.99181 113.454 9.99181C115.518 9.99181 117.797 10.587 119.476 12.0048C121.974 14.1245 122.408 16.7917 122.408 20.4892V39.1481H114.107V24.2962C114.107 22.0109 114.053 20.9244 113.726 19.9474C112.914 17.3897 110.688 17.1173 109.82 17.1173C108.356 17.1173 107.11 17.8249 106.402 18.7485C105.315 20.2197 105.315 22.5584 105.315 25.0065V39.1509H96.9609V0.69043H105.315Z"></path>
<path fill="black" d="M139.441 39.1512H149.042V26.5846H155.391C160.596 26.4723 167.649 26.3123 170.958 19.4563C171.831 17.6595 172.26 15.5931 172.26 13.4706C172.26 10.8568 171.56 7.76006 170.09 5.58141C166.728 0.741211 161.139 0.741211 154.845 0.741211H139.438V39.1484L139.441 39.1512ZM155.12 7.81621C157.886 7.81621 162.713 7.81621 162.713 13.4201C162.713 19.3496 158.376 19.4591 154.795 19.4591H149.042V7.81621H155.123H155.12Z"></path>
<path fill="black" d="M191.919 10.7529H200.274V39.1512H191.919V36.4335C191.107 37.3572 190.62 37.899 189.1 38.6627C187.414 39.5302 185.572 39.9682 183.724 39.9682C181.876 39.9682 178.461 39.6959 176.515 36.9754C175.048 34.909 174.776 33.2217 174.776 28.5977V10.7529H183.184V28.3815C183.184 29.6336 183.184 30.8858 183.839 31.7533C184.326 32.4075 185.463 33.1711 187.146 33.1711C187.638 33.1711 188.775 33.1711 190.021 32.4608C191.813 31.3743 191.869 29.9593 191.922 28.4348V10.7529H191.919Z"></path>
<path fill="black" d="M212.192 10.8595H204.756V48.9999H213.169V37.3009C215.395 38.6625 217.019 39.6957 220.168 39.6957C229.875 39.6957 232.428 30.6639 232.428 24.8438C232.428 15.3768 227.053 10.0986 220.115 10.0986C216.966 10.0986 214.418 11.2441 213.004 12.603C212.732 12.8725 212.464 13.201 212.192 13.5294V10.8595ZM219.953 16.1938C223.371 17.0641 224.399 21.0368 224.399 24.7877C224.399 29.2461 222.613 33.6567 218.539 33.6567C217.184 33.6567 215.773 33.0559 214.796 32.0199C213.712 30.8239 212.788 28.5947 212.788 25.0039C212.788 22.3395 213.337 19.8885 214.524 18.3135C215.72 16.6795 217.293 16.0282 218.811 16.0282C219.194 16.0282 219.569 16.0815 219.956 16.191"></path>
<path fill="black" d="M243.062 10.8595H235.626V48.9999H244.039V37.3009C246.265 38.6625 247.889 39.6957 251.039 39.6957C260.745 39.6957 263.293 30.6639 263.293 24.8438C263.293 15.3768 257.923 10.0986 250.977 10.0986C247.836 10.0986 245.282 11.2441 243.871 12.603C243.602 12.8725 243.331 13.201 243.059 13.5294V10.8595H243.062ZM250.82 16.1938C254.236 17.0641 255.266 21.0368 255.266 24.7877C255.266 29.2461 253.477 33.6567 249.409 33.6567C248.057 33.6567 246.64 33.0559 245.663 32.0199C244.58 30.8239 243.658 28.5947 243.658 25.0039C243.658 22.3395 244.199 19.8885 245.394 18.3135C246.59 16.6795 248.163 16.0282 249.681 16.0282C250.064 16.0282 250.439 16.0815 250.823 16.191"></path>
<path fill="black" d="M275.016 10.6997H266.768V39.1513H275.016V10.6997Z"></path>
<path fill="black" d="M300.924 28.707C299.891 30.72 298.32 33.7128 293.759 33.7128C289.198 33.7128 287.255 30.1753 287.306 26.6407H307.539C307.433 23.4288 307.215 17.8811 303.525 13.9113C299.893 9.99475 295.008 9.8291 293.331 9.8291C282.151 9.8291 278.786 18.642 278.786 25.498C278.786 34.7994 284.696 40.187 293.11 40.187C297.665 40.187 301.355 38.4464 303.796 36.161C305.26 34.7966 306.238 33.3872 307.215 31.916L300.924 28.7042V28.707ZM287.359 21.4158C287.628 20.2198 287.899 18.9143 289.042 17.6621C289.853 16.7946 291.267 15.8148 293.275 15.8148C294.736 15.8148 296.312 16.3566 297.346 17.3926C298.533 18.6448 298.751 20.2226 298.916 21.4186H287.362L287.359 21.4158Z"></path>
<path fill="black" d="M314.108 29.5773C316.387 31.8093 319.206 33.4939 322.356 33.4939C324.363 33.4939 327.401 32.8425 327.401 30.72C327.401 29.7402 326.799 29.3612 326.309 29.086C325.063 28.4347 323.115 28.2718 321.482 27.9967C320.234 27.7805 318.935 27.5082 317.686 27.1292C315.95 26.6407 314.214 25.9332 312.963 24.681C311.717 23.4288 310.849 21.4748 310.849 19.3495C310.849 14.6721 314.864 9.8291 322.781 9.8291C329.456 9.8291 333.468 12.7124 335.425 14.0741L330.268 18.861C327.608 16.7946 325.116 16.0338 323.162 16.0338C319.909 16.0338 319.147 17.3393 319.147 18.1535C319.147 19.7874 320.934 20.1131 323.649 20.6016C329.338 21.6348 335.963 23.1565 335.963 29.9058C335.963 36.6551 329.235 39.8614 322.557 39.8614C314.693 39.8614 310.628 36.0515 308.836 34.3642L314.097 29.5773H314.108Z"></path>
<path fill="black" d="M275.454 4.15516C275.454 6.45454 273.43 8.31032 270.936 8.31032C268.441 8.31032 266.414 6.45173 266.414 4.15516C266.414 1.85859 268.438 0 270.936 0C273.433 0 275.454 1.8614 275.454 4.15516Z"></path>
<path fill="black" d="M334.868 6.8026H333.93V6.23828H336.447V6.8026H335.517V9.40799H334.868V6.8026Z"></path>
<path fill="black" d="M336.822 6.23828H337.785L338.412 8.64996L339.034 6.23828H340V9.40799H339.39V6.85313L338.748 9.40799H338.085L337.433 6.85313V9.40799H336.822V6.23828Z"></path>
</g>
<defs>
<clipPath id="clip0_1514_18243">
<rect fill="white" height="49" width="340"></rect>
</clipPath>
</defs>
</svg>
