<svg viewBox="0 0 587.8499756 162.7799988" version="1.1" xmlns="http://www.w3.org/2000/svg" id="Layer_2">
  
  <defs>
    <style>
      .st0 {
        fill: #009aff;
      }

      .st1 {
        fill: #3398ff;
      }
    </style>
  </defs>
  <g id="Layer_1-2">
    <g>
      <g id="SS_Logo_Blue_Digital">
        <g>
          <path d="M226.0700073,19.6700001c-15.9499969,1.6100006-28.6399994,15.8400021-26.8699951,33.4100018,1.7599945,17.4499969,17.0400085,28.9899979,33.4599915,27.3399963,11.2100067-1.1299973,20.2900085-7.1800003,24.9200134-16.8700027l-13.2299957-7.3100014c-2.8300018,5.5400009-6.3200073,9.1599998-13.1300049,9.8500023-6.6999969.6800003-12.7899933-2.9099998-15.2400055-9.9099998l42.6499939-4.2900009c-.8699951-20.2299995-13.5899963-34.1199989-32.5500031-32.2099991l-.0099945-.0099964ZM215.4400024,45.1399994c1.4499969-6.4500008,6.2799988-10.6699982,12.1699982-11.2700005,7.5099945-.7599983,11.9400024,3.8199997,13.25,8.7099991l-25.4300079,2.5600014h.0100098Z" class="st1"></path>
          <path d="M103.1100006,32.0499992c-7.6299973.7700005-13.0500031,4.9300003-16.0599976,9.7900009L82.8399963,0l-17.5699997,1.77,9.3799973,93.1499982,17.5699997-1.7699966-3.2099991-31.9000015c-.6900024-6.8199997,2.7399979-12.1899986,9.2200012-12.8400002,6.2399979-.6300011,10.1500015,3.420002,10.7600021,9.4300003l3.3499985,33.2900047,17.5700073-1.7699966-3.8399963-38.1399994c-1.2699966-12.5999985-10.1200027-20.4599991-22.9499969-19.1699982l-.0100098-.0000114Z" class="st1"></path>
          <path d="M160.6300049,26.2600002c-16.8699951,1.7000008-30.0200043,16.1000004-28.2599945,33.5499973,1.7599945,17.4499969,17.5099945,28.9400024,34.3800049,27.2399979,16.8699951-1.6999969,29.8999939-16.090004,28.1499939-33.5400009-1.7599945-17.4500008-17.3899994-28.9500008-34.2700043-27.2499943ZM165.2299957,71.9100037c-8.5500031.8600006-15.5699921-5.0899963-16.4499969-13.75-.8699951-8.6699982,4.8200073-15.9000015,13.3699951-16.7600021,8.4400024-.8499985,15.4600067,5.0999985,16.3300018,13.7700005s-4.8200073,15.8999977-13.2599945,16.7499962l.0099945-.0099945Z" class="st1"></path>
          <path d="M278.4500122,32.3699989c-.2799988-2.7700005,1.8299866-4.9699993,4.7200012-5.2600002,3.3500061-.3400002,5.75,1.4099998,7.0299988,4.8999996l14.7600098-5.3400002c-3.5700073-8.75-12.2399902-13.71-22.8699951-12.6400003-12.8299866,1.29-20.6099854,10.9499998-19.6000061,21.000001,2.1400146,21.2700005,28.8299866,11.5699997,29.7399902,20.5900002.3599854,3.579998-2.3399963,5.7200012-5.8099976,6.0699997-4.1600037.4199982-8.0100098-1.8800011-9.8900146-6.5900002l-14.4500122,6.0100021c3.5799866,10.0299988,14.6900024,14.8700027,25.4400024,13.7799988,11.6700134-1.1800003,22.1199951-9.9300003,20.9200134-21.8400002-2.1900024-21.7299995-29.1199951-12.1300011-29.980011-20.6800003h-.0099792Z" class="st1"></path>
          <path d="M19.0100002,36.4300003c-.5799999-5.7800007,3.4500008-9.7999992,9.1099987-10.3699989,6.1300011-.6200008,10.3699989,3.2800007,12.4900017,8.079998l16.4700012-8.0799999c-4.9500008-10.9399996-16.2099991-17.1599998-29.8400002-15.79C9.8900003,12.0200005-.44,25.3099995.99,39.5299988c3.0699999,30.5100021,42.8700006,15.2999992,44.5400026,31.9400024.7200012,7.1699982-4.3699989,12.2299957-11.7700005,12.9799957-7.8600006.7900009-14.1899986-4.0599976-16.9899998-12.1800003L0,79.5599976c4.6999998,14.2399979,18.6000004,22.4100037,34.7799988,20.7799988,17.6800003-1.7799988,30.8000031-15.2399979,29.1500015-31.6600037-3.1699982-31.4400024-43.3899994-17-44.9300003-32.25l.0100002.0000076Z" class="st1"></path>
          <polygon points="565.4299927 69.3300018 585.7600098 41.6800003 566.8300171 41.6800003 555.3300171 57.4799995 544.4099731 41.6800003 524.4299927 41.6800003 544.9899902 70.0199966 522.4500122 99.9899979 541.5 99.9899979 554.75 81.6399994 567.9899902 99.9899979 587.8499756 99.9899979 565.4299927 69.3300018" class="st1"></polygon>
          <path d="M393.2000122,61.0800018l-11.269989-10.2200012-14.980011,16.2600021-12.4299927-13.5900002c8.3599854-4.5299988,15.7999878-10.7999992,15.7999878-20.6800003,0-13.3600006-11.0299988-21.8400002-23.5799866-21.8400002-13.3599854,0-24.3899841,9.2900009-24.3899841,22.1900024,0,7.4300003,3.480011,12.8899994,7.0899963,16.9599991l1.7399902,1.9799995c-8.8299866,4.9900017-18.0100098,11.6199989-18.0100098,24.7400017s10.5700073,24.5100021,27.5299988,24.5100021c9.5299988,0,17.4200134-4.1800003,25.3200073-11.2699966l9.0599976,9.8700027h21.9500122l-19.75-21.4899979,15.9100037-17.4199982.0099792-.0000153ZM346.5,25.6499996c4.5299988,0,7.6700134,3.25,7.6700134,7.8999996,0,3.5999985-2.7900085,7.2000008-8.019989,10.1100006l-.4700012.2299995-1.9700012-2.0900002c-2.5599976-2.9000015-4.7600098-5.4599991-4.7600098-8.7099991,0-4.4099998,3.25-7.4300003,7.5499878-7.4300003v-.0100002ZM341.3900146,86.1699982c-6.8500061,0-11.3800049-4.9899979-11.3800049-11.3799973s4.6499939-9.9899979,9.9899902-13.0100021l15.7999878,17.1900024c-4.8800049,4.7600021-8.9400024,7.1999969-14.3999939,7.1999969h-.0099792Z" class="st1"></path>
          <path d="M497.9200134,40.2900009c-16.9599915,0-31.480011,13.0100021-31.480011,30.5499954s14.519989,30.5500031,31.480011,30.5500031c16.9599915,0,31.3600159-13.0100021,31.3600159-30.5500031s-14.4000244-30.5499992-31.3599854-30.5499992l-.0000305.0000038ZM497.9200134,86.1699982c-8.6000061,0-14.980011-6.6200027-14.980011-15.3300018s6.3900146-15.3300018,14.980011-15.3300018,14.8700256,6.6199989,14.8700256,15.3300018-6.3900146,15.3300018-14.8699951,15.3300018h-.0000305Z" class="st1"></path>
          <path d="M420.6000061,36.2200012c0-5.8099995,4.4100037-9.4099998,10.1099854-9.4099998,6.1600037,0,9.9899902,4.2999992,11.6199951,9.2900009l17.1900024-6.3899994c-3.8299866-11.3800011-14.3999939-18.7000008-28.1100159-18.7000008-17.4200134,0-29.0400085,12.2000008-29.0400085,26.4799995,0,30.670002,41.1199951,19.5200005,41.1199951,36.2400017,0,7.1999969-5.5799866,11.7300034-13.0100098,11.7300034-7.8999939,0-13.7099915-5.4599991-15.6799927-13.8199997l-17.4200134,5.5800018c3.25,14.6399994,16.2600098,24.159996,32.5299988,24.159996,17.769989,0,32.1799927-12.0800018,32.1799927-28.5699997,0-31.5999985-41.4700012-21.2600021-41.4700012-36.5900002l-.019928-.0000038Z" class="st1"></path>
        </g>
      </g>
      <g>
        <path d="M119.3499985,133.8500061l10.6700058-12.3099976h7.8800049l-11.8199997,13.1300049,13.5799942,17.8099976h-8l-10.0899963-13.1699982-2.2200012,2.5v10.6699982h-6.6100006v-30.9400024h6.6100006s0,12.3099976-.0000076,12.3099976Z" class="st0"></path>
        <path d="M141.75,123.9700012c0-2.0500031,1.6799927-3.6900024,3.7299957-3.6900024s3.6900024,1.6399994,3.6900024,3.6900024-1.6799927,3.6900024-3.6900024,3.6900024-3.7299957-1.6399994-3.7299957-3.6900024ZM148.6100006,131.8899994v20.6000061h-6.2400055v-20.6000061h6.2400055Z" class="st0"></path>
        <path d="M175.6499939,119.4100037v33.0700073h-6.2400055v-2.4600067c-1.1900024,1.6000061-3.5299988,2.9499969-6.3600006,2.9499969-5.6199951,0-10.1799927-4.6399994-10.1799927-10.7899933s4.5500031-10.7899933,10.1799927-10.7899933c2.8300018,0,5.1699982,1.3500061,6.3600006,2.9499969v-14.9400024h6.2400055v.0099945ZM164.3200073,147.6000061c3.0399933,0,5.2899933-2.3399963,5.2899933-5.4199982s-2.2599945-5.4199982-5.2899933-5.4199982-5.25,2.3399963-5.25,5.4199982,2.2599945,5.4199982,5.25,5.4199982Z" class="st0"></path>
        <path d="M179.1399994,147.2299957l5.2899933-1.6000061c.4900055,1.7200012,1.7599945,2.6699982,3.2400055,2.6699982,1.2299957,0,2.2599945-.6600037,2.2599945-1.9299927,0-3.1999969-9.7299957-.7400055-9.7299957-8.2899933,0-3.5700073,3.0800018-6.6900024,7.6300049-6.6900024,3.7799988,0,6.6499939,2.0500031,7.5899963,5.25l-5.3800049,1.3500061c-.3300018-1.2700043-1.1100006-1.9700012-2.3000031-1.9700012-1.0299988,0-1.8500061.6999969-1.8500061,1.6799927,0,3.0399933,9.8099976.6199951,9.8099976,8.3300018,0,4.2299957-3.9799957,6.9299927-8.1199951,6.9299927-3.8200073,0-7.5500031-2.0899963-8.4499969-5.7400055l.0100098.0100098Z" class="st0"></path>
        <path d="M210.1600037,121.5400009h17.6900024v5.5h-11.1999969v6.9800034h10.9199982v5.5h-10.9199982v12.9700012h-6.4799957v-30.9400024l-.0100098-.0100021Z" class="st0"></path>
        <path d="M232.0299988,123.9700012c0-2.0500031,1.6799927-3.6900024,3.7299957-3.6900024s3.6900024,1.6399994,3.6900024,3.6900024-1.6799927,3.6900024-3.6900024,3.6900024-3.7299957-1.6399994-3.7299957-3.6900024ZM238.8800049,131.8899994v20.6000061h-6.2400055v-20.6000061h6.2400055Z" class="st0"></path>
        <path d="M242.8200073,131.8899994h3.1199951v-6.6900024h6.2400055v6.6900024h4.1399994v5.3800049h-4.1399994v15.2200012h-6.2400055v-15.2200012h-3.1199951v-5.3800049Z" class="st0"></path>
        <path d="M278.7200012,152.9799957c-5.7399902,0-10.3399963-3.3600006-11.4899902-8.5399933l6.1600037-1.9700012c.7000122,2.9499969,2.75,4.8800049,5.5400085,4.8800049,2.6300049,0,4.6000061-1.6000061,4.6000061-4.1399994,0-5.9100037-14.5299988-1.9700012-14.5299988-12.8000031,0-5.0500031,4.1000061-9.3600006,10.2600098-9.3600006,4.8399963,0,8.5799866,2.5899963,9.9299927,6.6100006l-6.0700073,2.2599945c-.5700073-1.7599945-1.9299927-3.2799988-4.1000061-3.2799988-2.0100098,0-3.5700073,1.2699966-3.5700073,3.3200073,0,5.4199982,14.6499939,1.7599945,14.6499939,12.9300079,0,5.8300018-5.0899963,10.0899963-11.3699951,10.0899963l-.0100098-.0000153Z" class="st0"></path>
        <path d="M300.1400146,134.3500061c1.1900024-1.6000061,3.5299988-2.9499969,6.3599854-2.9499969,5.6199951,0,10.1799927,4.6399994,10.1799927,10.7899933s-4.5499878,10.7899933-10.1799927,10.7899933c-2.8299866,0-5.1700134-1.3500061-6.3599854-2.9499969v12.7599945h-6.2399902v-30.8999939h6.2399902v2.4600067ZM305.230011,136.7700043c-3.0400085,0-5.2900085,2.3399963-5.2900085,5.4199982s2.2600098,5.4199982,5.2900085,5.4199982,5.25-2.3399963,5.25-5.4199982-2.2600098-5.4199982-5.25-5.4199982Z" class="st0"></path>
        <path d="M335.6799927,144.8899994l4.3900146,3.0399933c-1.9700012,3.2400055-5.3800049,5.0500031-9.3599854,5.0500031-5.8299866,0-10.7900085-4.6000061-10.7900085-10.7899933s4.9700012-10.7899933,10.6300049-10.7899933c6.730011,0,10.7099915,5.3300018,10.2999878,12.4700012h-15.1400146c.6199951,2.5399933,2.6300049,4.0200043,5.0100098,4.0200043s3.7799988-1.1499939,4.9700012-3l-.0100098-.0000153ZM325.9100037,139.9700012h9.0299988c-.2900085-1.7599945-1.6799927-3.5299988-4.3500061-3.5299988-2.0899963,0-3.9400024,1.3099976-4.6799927,3.5299988Z" class="st0"></path>
        <path d="M359.3500061,132.2100067v6.0700073c-1.0299988-.8600006-2.2200012-1.3999939-3.9400024-1.3999939-2.8299866,0-5.3299866,2.0899963-5.3299866,5.2899933s2.5,5.2899933,5.3299866,5.2899933c1.7200012,0,2.9100037-.5700073,3.980011-1.3999939v6.0700073c-1.3099976.5299988-2.6700134.8200073-4.3099976.8200073-5.9100037,0-11-4.5500031-11-10.7899933s5.0899963-10.7899933,11-10.7899933c1.6400146,0,3,.2899933,4.269989.8200073v.0199585Z" class="st0"></path>
        <path d="M363.5,123.9700012c0-2.0500031,1.6799927-3.6900024,3.730011-3.6900024s3.6900024,1.6399994,3.6900024,3.6900024-1.6799927,3.6900024-3.6900024,3.6900024-3.730011-1.6399994-3.730011-3.6900024ZM370.3500061,131.8899994v20.6000061h-6.2399902v-20.6000061h6.2399902Z" class="st0"></path>
        <path d="M397.4299927,131.8899994v20.6000061h-6.2399902v-2.4600067c-1.230011,1.6000061-3.5700073,2.9499969-6.3999939,2.9499969-5.6199951,0-10.1799927-4.6399994-10.1799927-10.7899933s4.5499878-10.7899933,10.1799927-10.7899933c2.8299866,0,5.1700134,1.3500061,6.3999939,2.9499969v-2.4600067h6.2399902ZM386.1099854,147.6000061c3,0,5.25-2.3399963,5.25-5.4199982s-2.2600098-5.4199982-5.25-5.4199982-5.2900085,2.3399963-5.2900085,5.4199982,2.2600098,5.4199982,5.2900085,5.4199982Z" class="st0"></path>
        <path d="M409.2900085,119.4100037v33.0700073h-6.2399902v-33.0699997s6.2399902,0,6.2399902-.0000076Z" class="st0"></path>
        <path d="M414.2999878,123.9700012c0-2.0500031,1.6799927-3.6900024,3.730011-3.6900024s3.6900024,1.6399994,3.6900024,3.6900024-1.6799927,3.6900024-3.6900024,3.6900024-3.730011-1.6399994-3.730011-3.6900024ZM421.1499939,131.8899994v20.6000061h-6.2399902v-20.6000061h6.2399902Z" class="st0"></path>
        <path d="M424.6000061,147.2299957l5.2900085-1.6000061c.4899902,1.7200012,1.7600098,2.6699982,3.2399902,2.6699982,1.230011,0,2.2600098-.6600037,2.2600098-1.9299927,0-3.1999969-9.730011-.7400055-9.730011-8.2899933,0-3.5700073,3.0799866-6.6900024,7.6300049-6.6900024,3.7799988,0,6.6499939,2.0500031,7.5899963,5.25l-5.3800049,1.3500061c-.3299866-1.2700043-1.1099854-1.9700012-2.2999878-1.9700012-1.0299988,0-1.8500061.6999969-1.8500061,1.6799927,0,3.0399933,9.8099976.6199951,9.8099976,8.3300018,0,4.2299957-3.980011,6.9299927-8.1199951,6.9299927-3.8200073,0-7.5499878-2.0899963-8.4500122-5.7400055l.0100098.0100098Z" class="st0"></path>
        <path d="M443.5499878,131.8899994h3.1199951v-6.6900024h6.2399902v6.6900024h4.1400146v5.3800049h-4.1400146v15.2200012h-6.2399902v-15.2200012h-3.1199951v-5.3800049Z" class="st0"></path>
        <path d="M458.5299988,147.2299957l5.2900085-1.6000061c.4899902,1.7200012,1.7600098,2.6699982,3.2399902,2.6699982,1.230011,0,2.2600098-.6600037,2.2600098-1.9299927,0-3.1999969-9.730011-.7400055-9.730011-8.2899933,0-3.5700073,3.0799866-6.6900024,7.6300049-6.6900024,3.7799988,0,6.6499939,2.0500031,7.5899963,5.25l-5.3800049,1.3500061c-.3299866-1.2700043-1.1099854-1.9700012-2.2999878-1.9700012-1.0299988,0-1.8500061.6999969-1.8500061,1.6799927,0,3.0399933,9.8099976.6199951,9.8099976,8.3300018,0,4.2299957-3.980011,6.9299927-8.1199951,6.9299927-3.8200073,0-7.5499878-2.0899963-8.4500122-5.7400055l.0100098.0100098Z" class="st0"></path>
      </g>
    </g>
  </g>
</svg>