<svg xmlns="http://www.w3.org/2000/svg" fill="none" viewBox="0 0 141 21" height="21" width="141">
<path fill="black" d="M42.1043 3.04612C41.6961 2.51319 41.1582 2.08272 40.4923 1.75388C39.8255 1.42587 39.0034 1.26144 38.0276 1.26144H31.3119V20.2881H35.149V12.6933H37.2014C38.1077 12.6933 38.9332 12.5784 39.6793 12.3471C40.4253 12.1166 41.0607 11.7695 41.5846 11.3077C42.1084 10.8466 42.5174 10.2517 42.8099 9.52217C43.1032 8.79426 43.2503 7.94075 43.2503 6.96414C43.2503 6.25357 43.161 5.55623 42.9834 4.8721C42.8057 4.18881 42.5124 3.57987 42.1034 3.04694L42.1043 3.04612ZM38.7068 9.17515C38.2358 9.63785 37.6186 9.86837 36.8552 9.86837H35.149V4.08553H36.7478C37.707 4.08553 38.3911 4.33422 38.8001 4.83162C39.2083 5.32984 39.4132 6.05776 39.4132 7.01702C39.4132 7.97628 39.1769 8.71411 38.7068 9.17515Z"></path>
<path fill="black" d="M50.1791 12.0273H56.575V8.88184H50.1791V4.40528H56.9749V1.26062H46.342V20.2881H57.2409V17.1434H50.1791V12.0273Z"></path>
<path fill="black" d="M23.984 14.5317C23.984 15.0117 23.9526 15.4513 23.8907 15.8512C23.8279 16.2511 23.713 16.5972 23.5437 16.8906C23.3751 17.1839 23.1487 17.4144 22.8645 17.5838C22.5803 17.7532 22.2068 17.8366 21.7458 17.8366C21.2847 17.8366 20.9327 17.7532 20.6394 17.5838C20.3461 17.4152 20.1148 17.1839 19.9462 16.8906C19.7777 16.5972 19.662 16.2511 19.6 15.8512C19.5372 15.4513 19.5075 15.0117 19.5075 14.5317V1.26062H15.6696V14.5317C15.6696 15.8107 15.8382 16.8501 16.1761 17.6499C16.5132 18.4497 16.9668 19.0669 17.5352 19.5023C18.1037 19.9377 18.7515 20.2261 19.4802 20.3682C20.2081 20.5103 20.9633 20.5814 21.7458 20.5814C22.5282 20.5814 23.2817 20.5012 24.0105 20.3418C24.7384 20.1815 25.387 19.8708 25.9554 19.4089C26.5239 18.9471 26.9767 18.3208 27.3146 17.5301C27.6517 16.7394 27.8211 15.7404 27.8211 14.5325V1.26062H23.9832V14.5317H23.984Z"></path>
<path fill="black" d="M113.576 8.61579H113.523L111.017 1.26062H106.701L111.631 12.7999V20.2881H115.469V12.7999L120.399 1.26062H116.241L113.576 8.61579Z"></path>
<path fill="black" d="M104.675 19.0355C104.604 18.5026 104.551 17.73 104.515 16.7171C104.498 16.2023 104.479 15.7355 104.462 15.3182C104.444 14.901 104.417 14.5143 104.382 14.1582C104.275 13.0923 103.999 12.3198 103.556 11.8398C103.111 11.3597 102.41 11.0499 101.45 10.9069V10.8541C102.534 10.6235 103.333 10.103 103.849 9.29496C104.365 8.4869 104.622 7.44253 104.622 6.16351C104.622 4.51104 104.178 3.2816 103.29 2.47271C102.401 1.66465 101.158 1.26062 99.5592 1.26062H92.4709V20.2872H96.3088V12.2397H98.3603C99.1601 12.2397 99.7286 12.4528 100.066 12.8792C100.403 13.3055 100.59 13.8921 100.625 14.6382L100.732 18.2894C100.75 18.6628 100.785 19.0223 100.839 19.3685C100.892 19.7155 101.016 20.022 101.212 20.2881H105.369V20.1286C105.013 19.9328 104.783 19.5692 104.676 19.0355H104.675ZM100.039 8.92232C99.5418 9.35775 98.8305 9.57505 97.9067 9.57505H96.3079V4.08553H98.1199C99.8963 4.08553 100.785 4.96547 100.785 6.7237C100.785 7.75402 100.536 8.48772 100.038 8.92232H100.039Z"></path>
<path fill="black" d="M72.9634 19.0355C72.8924 18.5026 72.8395 17.73 72.8031 16.7171C72.7858 16.2023 72.7676 15.7355 72.7502 15.3182C72.7321 14.901 72.7056 14.5143 72.6701 14.1582C72.5627 13.0923 72.2876 12.3198 71.8439 11.8398C71.3994 11.3597 70.6979 11.0499 69.7386 10.9069V10.8541C70.8218 10.6235 71.6216 10.103 72.1372 9.29496C72.6519 8.4869 72.9105 7.44253 72.9105 6.16351C72.9105 4.51104 72.466 3.2816 71.5778 2.47271C70.6888 1.66465 69.4461 1.26062 67.8473 1.26062H60.7582V20.2872H64.5961V12.2397H66.6485C67.4483 12.2397 68.0167 12.4528 68.353 12.8792C68.6901 13.3055 68.8768 13.8921 68.9132 14.6382L69.0198 18.2894C69.0371 18.6628 69.0735 19.0223 69.1264 19.3685C69.1801 19.7155 69.304 20.022 69.4998 20.2881H73.6566V20.1286C73.3013 19.9328 73.0708 19.5692 72.9642 19.0355H72.9634ZM68.3266 8.92232C67.8292 9.35775 67.1186 9.57505 66.1949 9.57505H64.5961V4.08553H66.408C68.1853 4.08553 69.0735 4.96547 69.0735 6.7237C69.0735 7.75402 68.824 8.48772 68.3274 8.92232H68.3266Z"></path>
<path fill="black" d="M88.1133 3.77899C87.6605 2.97093 87.0252 2.3496 86.208 1.91335C85.3909 1.47792 84.3159 1.26062 82.9832 1.26062H76.6939V20.2881H82.7436C84.0226 20.2881 85.0794 20.0922 85.9147 19.7014C86.7492 19.3106 87.416 18.7149 87.9134 17.9159C88.4108 17.1161 88.7619 16.0999 88.9668 14.8646C89.1709 13.6302 89.2734 12.1777 89.2734 10.507C89.2734 9.10327 89.1932 7.83334 89.0337 6.69644C88.8735 5.55953 88.5669 4.58705 88.1141 3.77817L88.1133 3.77899ZM85.3148 13.8657C85.2355 14.7366 85.0752 15.438 84.8356 15.971C84.5952 16.5039 84.2713 16.8864 83.8623 17.117C83.4525 17.3483 82.9122 17.4631 82.2371 17.4631H80.5318V4.08553H82.157C82.8849 4.08553 83.4674 4.22351 83.9028 4.49865C84.3374 4.77461 84.6663 5.18277 84.8885 5.72478C85.1108 6.26679 85.257 6.94596 85.3281 7.76311C85.3991 8.58026 85.4347 9.53126 85.4347 10.6145C85.4347 11.9117 85.3942 12.9957 85.3148 13.8657Z"></path>
<path fill="black" d="M11.9251 11.9067C11.6491 11.5068 11.2806 11.1333 10.8196 10.788C10.3569 10.4409 9.762 10.108 9.03326 9.78905L6.07533 8.5092C5.25818 8.1721 4.72526 7.80277 4.47656 7.40287C4.22786 7.00297 4.1031 6.51053 4.1031 5.92473C4.1031 5.64051 4.13449 5.36454 4.19646 5.09849C4.25843 4.83162 4.3741 4.59614 4.54266 4.39206C4.71121 4.18798 4.9376 4.02356 5.22265 3.8988C5.50688 3.77486 5.86216 3.71207 6.2885 3.71207C7.03459 3.71207 7.56751 3.95746 7.88727 4.44494C8.20702 4.93407 8.36731 5.63059 8.36731 6.53697H12.0449V6.00405C12.0449 5.09849 11.8978 4.321 11.6045 3.67241C11.3112 3.02381 10.903 2.49089 10.3792 2.07364C9.85537 1.65639 9.23321 1.35398 8.51356 1.16725C7.79473 0.980523 7.00815 0.887985 6.15547 0.887985C4.32536 0.887985 2.88688 1.34985 1.83838 2.27359C0.789883 3.19732 0.266875 4.6011 0.266875 6.48409C0.266875 7.26572 0.363545 7.95397 0.560189 8.54969C0.755182 9.14541 1.06172 9.66842 1.47897 10.122C1.89622 10.5748 2.41592 10.9706 3.03808 11.3077C3.65941 11.6456 4.39724 11.9563 5.24992 12.2405C5.88942 12.4537 6.42648 12.6627 6.86273 12.8668C7.29733 13.0709 7.64849 13.2981 7.91536 13.5459C8.18223 13.7946 8.37227 14.0747 8.48877 14.3854C8.60362 14.6961 8.66145 15.0646 8.66145 15.4909C8.66145 16.2907 8.42597 16.8815 7.95502 17.2632C7.48406 17.6457 6.95527 17.8358 6.36947 17.8358C5.87207 17.8358 5.45895 17.7647 5.13011 17.6226C4.80127 17.4805 4.53935 17.2855 4.34353 17.036C4.14771 16.7873 4.01469 16.4816 3.94363 16.1164C3.87258 15.752 3.83705 15.348 3.83705 14.9035V14.3441H0V15.1166C0 16.8757 0.465998 18.2258 1.39882 19.1668C2.33164 20.1088 3.88084 20.5797 6.04889 20.5797C8.21694 20.5797 9.74878 20.1228 10.9121 19.2073C12.0755 18.2927 12.658 16.8319 12.658 14.8233C12.658 14.2367 12.6051 13.7038 12.4985 13.2245C12.3919 12.7445 12.2011 12.3049 11.9259 11.905L11.9251 11.9067Z"></path>
<path fill="black" d="M131.145 0.87146C125.712 0.87146 121.291 5.29183 121.291 10.726C121.291 16.1602 125.711 20.5805 131.145 20.5805C136.58 20.5805 141 16.1602 141 10.726C141 5.29183 136.58 0.87146 131.145 0.87146ZM131.145 18.4075C126.91 18.4075 123.464 14.9621 123.464 10.7268C123.464 6.49153 126.91 3.04612 131.145 3.04612C135.381 3.04612 138.827 6.49153 138.827 10.7268C138.827 14.9621 135.382 18.4075 131.145 18.4075Z"></path>
<path fill="black" d="M135.425 8.82317C135.425 7.08807 134.014 5.67686 132.279 5.67686H127.897V15.676H129.797V11.9695H131.278L133.08 15.6058L133.115 15.676H135.236L133.311 11.7935C134.561 11.3581 135.426 10.1509 135.426 8.82317H135.425ZM132.279 10.0708H129.796V7.57638H132.279C132.966 7.57638 133.526 8.13574 133.526 8.82317C133.526 9.5106 132.966 10.0708 132.279 10.0708Z"></path>
</svg>
