<?xml version="1.0" encoding="UTF-8"?>
<!-- Generator: Adobe Illustrator 28.3.0, SVG Export Plug-In . SVG Version: 6.00 Build 0)  -->
<svg version="1.1" id="Layer_1" xmlns="http://www.w3.org/2000/svg" xmlns:xlink="http://www.w3.org/1999/xlink" x="0px" y="0px" viewBox="0 0 500 280" style="enable-background:new 0 0 500 280;" xml:space="preserve">
<style type="text/css">
	.st0{fill:#12100B;}
</style>
<g>
	<path class="st0" d="M497.53,106.66L248.88,2.53l-0.57,0.24L2.47,106.66l246.42,103.11L497.53,106.66z M78.08,106.65   c5.79-2.42,169.62-71.13,170.75-71.61c1.12,0.47,165.06,69.19,170.86,71.61c-5.8,2.4-169.75,70.2-170.86,70.66   C247.71,176.85,83.89,109.05,78.08,106.65z"/>
	<path class="st0" d="M250.27,56.6l-0.57,0.24l-118.23,49.82l118.8,49.58l118.27-49.58L250.27,56.6z M194.97,106.66   c5.2-2.24,54.29-23.3,55.37-23.78c1.09,0.47,51.04,21.53,56.35,23.78c-5.31,2.24-55.27,23.29-56.35,23.75   C249.25,129.94,200.17,108.88,194.97,106.66z"/>
	<path class="st0" d="M55.68,258.33c0,2.16-2.06,7.72-10.24,7.72c-8.23,0-9.24-6.82-9.24-6.85v-40.48H2.47v41.34   c0,3.01,0.24,17.42,43.21,17.42c42.82,0,42.82-13.78,42.82-17.42v-41.34H55.68V258.33z"/>
	<polygon class="st0" points="170.19,218.71 153.35,242.81 137.08,218.71 101.43,218.71 101.43,276.61 130.81,276.61 130.81,250.14    146.46,276.61 158.65,276.61 175.35,250.14 175.35,276.61 204.87,276.61 204.87,218.71  "/>
	<path class="st0" d="M291.58,247.77c0,0,10.53-3.46,10.53-14.44c0-10.96-14.22-14.62-18.33-14.62h-66.66v57.9h72.02   c0,0,15.31-0.86,15.31-13.97C304.45,250.14,291.58,247.77,291.58,247.77z M250.82,230.53h11c0,0,4.78,0.65,4.78,5.6   c0,4.98-4.78,5.61-4.78,5.61h-11V230.53z M262.78,265.86h-11.96v-13.99h11.96c0,0,5.84,0.84,5.84,6.9   C268.62,264.78,262.78,265.86,262.78,265.86z"/>
	<path class="st0" d="M400.49,236.07c0-10.97-9.62-17.36-24.11-17.36h-62.54v57.9h32.15v-20.29l17.94,20.29h38.48L387,254.46   C387,254.46,400.49,250.25,400.49,236.07z M359.68,244.46h-13.68v-14.5h13.68c0,0,6.07,0.85,6.07,7.27   C365.75,243.62,359.68,244.46,359.68,244.46z"/>
	<path class="st0" d="M462.08,218.71h-16.7c-14.93,0-36.36,0.23-36.36,24.02v9.94c0,24.48,21.43,24.07,36.36,24.07h16.7   c14.36,0,35.46-0.2,35.46-24.07v-9.94C497.53,219.56,476.43,218.71,462.08,218.71z M462.6,251c0,12.66-4.4,16.01-7.46,16.01h-3.49   c-3.16,0-7.66-3.35-7.66-16.01v-6.61c0-13.17,4.5-15.99,7.66-15.99h3.49c3.06,0,7.46,2.82,7.46,15.99V251z"/>
</g>
</svg>