<svg id="Layer_2" xmlns="http://www.w3.org/2000/svg" viewBox="0 0 241.91 40.52"><defs><style>.cls-1{fill:#051921;stroke-width:0px;}</style></defs><g id="Layer_1-2"><path class="cls-1" d="M227.15,22.13h14.76v-3.64h-10.94V0h-3.82v22.13ZM212.06,22.13h3.83V0h-3.83v22.13ZM190.61,14.04l3.26-9.04,3.26,9.04h-6.51ZM200.06,22.13h3.92L195.79,0h-3.83l-8.19,22.13h3.92l1.64-4.58h9.07l1.64,4.58ZM164.81,3.57h3.79c3.16,0,4.74.79,4.74,2.97s-1.48,2.97-4.74,2.97h-3.79V3.57ZM177.14,22.13l-4.46-9.48c2.88-.79,4.43-2.69,4.43-6.23,0-4.74-2.97-6.42-8.35-6.42h-7.78v22.13h3.82v-9.04h3.79l4.3,9.04h4.24ZM142.06,22.13h3.82V3.64h6.61V0h-17.01v3.64h6.57v18.49ZM105.55,14.04l3.26-9.04,3.26,9.04h-6.51ZM115.01,22.13h3.92L110.74,0h-3.82l-8.19,22.13h3.92l1.64-4.58h9.07l1.64,4.58ZM78.8,3.57h3.79c3.16,0,4.74.79,4.74,2.97s-1.49,2.97-4.74,2.97h-3.79V3.57ZM91.13,22.13l-4.46-9.48c2.88-.79,4.43-2.69,4.43-6.23,0-4.74-2.97-6.42-8.35-6.42h-7.78v22.13h3.83v-9.04h3.79l4.3,9.04h4.24ZM52.92,3.57h3.79c3.16,0,4.74.79,4.74,2.97s-1.49,2.97-4.74,2.97h-3.79V3.57ZM65.24,22.13l-4.46-9.48c2.88-.79,4.43-2.69,4.43-6.23,0-4.74-2.97-6.42-8.35-6.42h-7.78v22.13h3.82v-9.04h3.79l4.3,9.04h4.24ZM28.12,14.04l3.26-9.04,3.26,9.04h-6.51ZM37.57,22.13h3.92L33.3,0h-3.82l-8.19,22.13h3.92l1.64-4.58h9.07l1.64,4.58ZM7.21,22.13h3.82v-8.5L18.24,0h-3.92l-5.21,10.05L3.92,0H0l7.21,13.62v8.5Z"></path><rect class="cls-1" x="98.36" y="37.08" width="49.84" height="3.44"></rect></g></svg>